<svg width="194" height="175" viewBox="0 0 194 175" fill="none" xmlns="http://www.w3.org/2000/svg">
<g clip-path="url(#clip0_202_310)">
<path d="M174.12 51.84C183.63 88.17 165.22 140.27 119.16 153.87C99.42 159.44 77.39 157.25 58.82 148.94C29.68 136.35 14.56 105.63 18.71 74.79C24.2 31.76 67.27 6.45001 107.21 23.5C127.82 31.99 139.72 54.33 138.73 76.59C138.77 83.65 137.12 90.91 133.94 97.12C121.8 122.19 80.87 128.88 62.65 107.34C48.91 91 55.26 57.93 77.04 52.16C84.84 50.55 94.27 51.26 100.32 56.73C102.48 58.75 104.49 61.77 106.04 64.62C106.58 65.74 107.17 66.86 109.93 66.99C112.69 67.12 117.25 62.82 119.27 58.79C121.29 54.76 121.62 51.91 119.98 48.7C106.47 26.06 71.82 26.83 53.63 44.29C38.3 59.22 33.63 80.83 38.77 100.73C43.9 121.05 63.12 135.57 83.4 138.12C117.43 142.97 151.5 121.86 156.41 86.6C158.52 70.77 156.31 54.15 149.25 39.77C135.88 12.55 107.07 -1.43999 77.37 0.120005C5.55001 3.96001 -23.42 90.67 21.33 142.86C39.98 164.29 68.68 174.24 96.39 174.34C130.78 174.71 164.36 155.2 180.79 124.93C188.51 110.86 192.51 95.12 193.08 79.22C193.21 75.58 193.91 73.59 190.56 68.28C187.21 62.97 179.32 55.31 174.13 51.85L174.12 51.84Z" fill="url(#paint0_linear_202_310)"/>
<path d="M91.43 86.86C89.96 86.48 88.39 86.86 87.25 87.87C79.35 94.93 76.61 104.43 81.55 108.37C87.8 113.35 93.54 107.31 92.79 101.66C94.7 107.03 102.56 109.78 105.85 102.5C108.45 96.74 101.68 89.53 91.43 86.86Z" fill="url(#paint1_linear_202_310)"/>
<path d="M82.9155 83.3742C85.6363 81.892 86.242 77.7535 84.2684 74.1307C82.2948 70.5078 78.4892 68.7724 75.7684 70.2546C73.0477 71.7368 72.442 75.8753 74.4156 79.4981C76.3892 83.121 80.1947 84.8564 82.9155 83.3742Z" fill="url(#paint2_linear_202_310)"/>
<path d="M76.489 93.3875C78.0437 90.8424 76.5532 87.0988 73.1598 85.0258C69.7664 82.9529 65.7552 83.3356 64.2005 85.8806C62.6458 88.4257 64.1363 92.1693 67.5297 94.2422C70.9231 96.3152 74.9343 95.9325 76.489 93.3875Z" fill="url(#paint3_linear_202_310)"/>
<path d="M99.0208 73.5571C99.123 69.4328 96.695 66.0272 93.5976 65.9504C90.5003 65.8736 87.9065 69.1548 87.8042 73.2791C87.702 77.4034 90.13 80.8091 93.2274 80.8858C96.3248 80.9626 98.9185 77.6814 99.0208 73.5571Z" fill="url(#paint4_linear_202_310)"/>
<path d="M111.878 83.5256C113.951 80.1322 113.568 76.121 111.023 74.5663C108.478 73.0116 104.735 74.5021 102.662 77.8955C100.589 81.2889 100.971 85.3001 103.516 86.8548C106.061 88.4095 109.805 86.919 111.878 83.5256Z" fill="url(#paint5_linear_202_310)"/>
</g>
<defs>
<linearGradient id="paint0_linear_202_310" x1="24.42" y1="23.49" x2="155.96" y2="155.03" gradientUnits="userSpaceOnUse">
<stop stop-color="#FF0033"/>
<stop offset="1" stop-color="#FF7B00"/>
</linearGradient>
<linearGradient id="paint1_linear_202_310" x1="83.29" y1="91.76" x2="100.38" y2="108.85" gradientUnits="userSpaceOnUse">
<stop stop-color="#FF0033"/>
<stop offset="1" stop-color="#FF7B00"/>
</linearGradient>
<linearGradient id="paint2_linear_202_310" x1="74.1479" y1="71.6318" x2="84.5279" y2="82.0118" gradientUnits="userSpaceOnUse">
<stop stop-color="#FF0033"/>
<stop offset="1" stop-color="#FF7B00"/>
</linearGradient>
<linearGradient id="paint3_linear_202_310" x1="65.3076" y1="84.6081" x2="75.3776" y2="94.6681" gradientUnits="userSpaceOnUse">
<stop stop-color="#FF0033"/>
<stop offset="1" stop-color="#FF7B00"/>
</linearGradient>
<linearGradient id="paint4_linear_202_310" x1="88.7629" y1="68.7903" x2="98.0429" y2="78.0703" gradientUnits="userSpaceOnUse">
<stop stop-color="#FF0033"/>
<stop offset="1" stop-color="#FF7B00"/>
</linearGradient>
<linearGradient id="paint5_linear_202_310" x1="103.355" y1="76.8171" x2="111.165" y2="84.6171" gradientUnits="userSpaceOnUse">
<stop stop-color="#FF0033"/>
<stop offset="1" stop-color="#FF7B00"/>
</linearGradient>
<clipPath id="clip0_202_310">
<rect width="193.22" height="174.35" fill="white"/>
</clipPath>
</defs>
</svg>
