<svg width="81" height="80" viewBox="0 0 81 80" fill="none" xmlns="http://www.w3.org/2000/svg">
<g id="Layer_1" clip-path="url(#clip0_216_114)">
<path id="Vector" d="M40.5481 0C18.4923 0 0.548096 17.9442 0.548096 40C0.548096 62.0558 18.4923 80 40.5481 80C62.6039 80 80.5481 62.0558 80.5481 40C80.5481 17.9442 62.6039 0 40.5481 0ZM40.5481 72.7273C22.502 72.7273 7.82082 58.0461 7.82082 40C7.82082 21.9539 22.502 7.27273 40.5481 7.27273C58.5942 7.27273 73.2754 21.9539 73.2754 40C73.2754 58.0461 58.5942 72.7273 40.5481 72.7273Z" fill="url(#paint0_linear_216_114)"/>
<path id="Vector_2" d="M65.4257 40C65.4257 42.6763 63.2536 44.8485 60.5772 44.8485H45.3966V60.0242C45.3966 62.7054 43.2294 64.8727 40.5481 64.8727C37.8669 64.8727 35.6997 62.7054 35.6997 60.0242V44.8485H20.5239C17.8475 44.8485 15.6754 42.6763 15.6754 40C15.6754 37.3236 17.8475 35.1515 20.5239 35.1515H35.6997V19.9757C35.6997 17.2945 37.8718 15.1273 40.5481 15.1273C43.2245 15.1273 45.3966 17.2945 45.3966 19.9757V35.1515H60.5772C63.2536 35.1515 65.4257 37.3236 65.4257 40Z" fill="url(#paint1_linear_216_114)"/>
</g>
<defs>
<linearGradient id="paint0_linear_216_114" x1="0.548096" y1="40" x2="80.5481" y2="40" gradientUnits="userSpaceOnUse">
<stop stop-color="#FF0033"/>
<stop offset="1" stop-color="#FF7B00"/>
</linearGradient>
<linearGradient id="paint1_linear_216_114" x1="15.6754" y1="-1.42826e-05" x2="65.4257" y2="-1.42826e-05" gradientUnits="userSpaceOnUse">
<stop stop-color="#FF0033"/>
<stop offset="1" stop-color="#FF7B00"/>
</linearGradient>
<clipPath id="clip0_216_114">
<rect width="80" height="80" fill="white" transform="translate(0.548096)"/>
</clipPath>
</defs>
</svg>
