<svg width="55" height="50" viewBox="0 0 55 50" fill="none" xmlns="http://www.w3.org/2000/svg">
<g id="Layer_1" clip-path="url(#clip0_216_111)">
<path id="Vector" d="M53.1926 22.9519L28.9222 0.72964C27.8629 -0.244434 26.2333 -0.244434 25.174 0.72964L0.903664 22.9519C-0.229669 23.9889 -0.307447 25.7445 0.72959 26.8741C1.76663 28.0074 3.52218 28.0852 4.65552 27.0482L9.02218 23.0482V43.0556C9.02218 46.8852 12.2814 50 16.2851 50H37.8111C41.8148 50 45.074 46.8852 45.074 43.0556V23.0482L49.4407 27.0482C49.974 27.537 50.6481 27.7778 51.3185 27.7778C52.0703 27.7778 52.8185 27.4741 53.3666 26.8741C54.4037 25.7445 54.3259 23.9889 53.1926 22.9519ZM29.3518 44.4445H25.2148V34.1593H29.3518V44.4445ZM39.5185 18.8889V43.0556C39.5185 43.8074 38.737 44.4445 37.8111 44.4445H34.9074V33.1408C34.9074 30.6408 32.874 28.6037 30.374 28.6037H24.1963C21.6963 28.6037 19.6592 30.6408 19.6592 33.1408V44.4445H16.2851C15.3592 44.4445 14.5777 43.8074 14.5777 43.0556V18.8889C14.5777 18.6037 14.537 18.3333 14.4555 18.0741L27.0481 6.54446L39.6407 18.0741C39.5592 18.3333 39.5185 18.6037 39.5185 18.8889Z" fill="url(#paint0_linear_216_111)"/>
</g>
<defs>
<linearGradient id="paint0_linear_216_111" x1="-3.9367e-05" y1="25" x2="54.0963" y2="25" gradientUnits="userSpaceOnUse">
<stop stop-color="#FF0033"/>
<stop offset="1" stop-color="#FF7B00"/>
</linearGradient>
<clipPath id="clip0_216_111">
<rect width="54.0963" height="50" fill="white"/>
</clipPath>
</defs>
</svg>
