<svg width="50" height="50" viewBox="0 0 50 50" fill="none" xmlns="http://www.w3.org/2000/svg">
<g id="Layer_1" clip-path="url(#clip0_216_118)">
<g id="Group">
<path id="Vector" d="M25.5999 24.2037C25.2518 24.0481 24.8518 24.0667 24.5147 24.2444C19.074 27.1111 16.2444 32.1963 18.5518 34.9704C20.5851 37.4148 23.1184 36.7148 24.4444 34.9593C24.9295 34.3185 25.8592 34.2889 26.3851 34.8963C27.8221 36.563 30.3962 37.0926 32.2666 34.5222C34.3888 31.6037 31.2295 26.7074 25.6073 24.2074L25.5999 24.2037Z" fill="url(#paint0_linear_216_118)"/>
<path id="Vector_2" d="M22.0659 21.6928C23.6925 21.1993 24.4776 19.041 23.8195 16.8722C23.1614 14.7035 21.3093 13.3455 19.6827 13.839C18.0561 14.3326 17.271 16.4909 17.9291 18.6596C18.5872 20.8284 20.4393 22.1864 22.0659 21.6928Z" fill="url(#paint1_linear_216_118)"/>
<path id="Vector_3" d="M17.4976 26.3573C18.6161 25.1628 18.2314 22.9852 16.6383 21.4933C15.0452 20.0015 12.847 19.7604 11.7285 20.9549C10.61 22.1493 10.9947 24.327 12.5878 25.8188C14.1809 27.3107 16.3791 27.5517 17.4976 26.3573Z" fill="url(#paint2_linear_216_118)"/>
<path id="Vector_4" d="M31.8153 18.2027C32.3298 15.9954 31.4048 13.8933 29.7494 13.5075C28.0939 13.1216 26.3349 14.5982 25.8204 16.8054C25.306 19.0127 26.2309 21.1148 27.8864 21.5006C29.5418 21.8865 31.3008 20.4099 31.8153 18.2027Z" fill="url(#paint3_linear_216_118)"/>
<path id="Vector_5" d="M37.6136 24.9934C39.1054 23.4003 39.3465 21.2021 38.1521 20.0836C36.9576 18.9651 34.78 19.3498 33.2881 20.9429C31.7963 22.536 31.5552 24.7342 32.7497 25.8527C33.9441 26.9712 36.1218 26.5865 37.6136 24.9934Z" fill="url(#paint4_linear_216_118)"/>
</g>
<path id="Vector_6" d="M25 50C11.2148 50 0 38.7852 0 25C0 11.2148 11.2148 0 25 0C38.7852 0 50 11.2148 50 25C50 38.7852 38.7852 50 25 50ZM25 5.55556C14.2778 5.55556 5.55556 14.2778 5.55556 25C5.55556 35.7222 14.2778 44.4444 25 44.4444C35.7222 44.4444 44.4444 35.7222 44.4444 25C44.4444 14.2778 35.7222 5.55556 25 5.55556Z" fill="url(#paint5_linear_216_118)"/>
</g>
<defs>
<linearGradient id="paint0_linear_216_118" x1="18.3318" y1="29.3169" x2="33.0201" y2="32.3587" gradientUnits="userSpaceOnUse">
<stop stop-color="#FF0033"/>
<stop offset="1" stop-color="#FF7B00"/>
</linearGradient>
<linearGradient id="paint1_linear_216_118" x1="17.6049" y1="17.0917" x2="24.1439" y2="18.4459" gradientUnits="userSpaceOnUse">
<stop stop-color="#FF0033"/>
<stop offset="1" stop-color="#FF7B00"/>
</linearGradient>
<linearGradient id="paint2_linear_216_118" x1="10.9767" y1="22.9033" x2="18.2447" y2="24.4084" gradientUnits="userSpaceOnUse">
<stop stop-color="#FF0033"/>
<stop offset="1" stop-color="#FF7B00"/>
</linearGradient>
<linearGradient id="paint3_linear_216_118" x1="25.8054" y1="16.8788" x2="31.8294" y2="18.1263" gradientUnits="userSpaceOnUse">
<stop stop-color="#FF0033"/>
<stop offset="1" stop-color="#FF7B00"/>
</linearGradient>
<linearGradient id="paint4_linear_216_118" x1="32.2576" y1="22.3089" x2="38.6443" y2="23.6315" gradientUnits="userSpaceOnUse">
<stop stop-color="#FF0033"/>
<stop offset="1" stop-color="#FF7B00"/>
</linearGradient>
<linearGradient id="paint5_linear_216_118" x1="0" y1="25" x2="50" y2="25" gradientUnits="userSpaceOnUse">
<stop stop-color="#FF0033"/>
<stop offset="1" stop-color="#FF7B00"/>
</linearGradient>
<clipPath id="clip0_216_118">
<rect width="50" height="50" fill="white"/>
</clipPath>
</defs>
</svg>
