<svg width="167" height="36" viewBox="0 0 167 36" fill="none" xmlns="http://www.w3.org/2000/svg">
<g id="Layer_1" clip-path="url(#clip0_216_245)">
<g id="Group">
<path id="Vector" d="M58.0282 7.87726C60.8351 7.87726 62.8585 8.65363 64.1984 9.62409C65.505 10.5946 66.1239 11.7591 66.1239 12.6325C66.1239 14.7345 63.4149 15.2197 63.3503 15.0587C62.3063 13.2148 60.3475 12.2134 58.1928 12.2134C54.667 12.2134 52.1205 14.8336 52.1205 18.7795C52.1205 22.7253 54.7316 25.3786 58.2574 25.3786C60.7059 25.3786 62.6647 24.181 63.4795 22.2422C63.5441 22.0481 66.3531 22.5333 66.3531 24.6353C66.3531 25.5417 65.7009 26.8033 64.3297 27.8378C62.9585 28.8723 60.8705 29.7126 57.9636 29.7126C51.5662 29.7126 47.1589 25.2176 47.1589 18.8125C47.1589 12.4075 51.5975 7.87932 58.0282 7.87932V7.87726Z" fill="url(#paint0_linear_216_245)"/>
<path id="Vector_2" d="M84.3053 15.5109V28.8702C84.3053 29.0313 83.4884 29.3885 82.5757 29.3885C81.5963 29.3885 80.5189 29.0333 79.9959 27.6747C79.9313 27.4166 79.8646 27.1564 79.8334 26.8013C78.7227 28.451 77.091 29.6796 74.5779 29.6796C70.4332 29.6796 68.7015 26.8013 68.7015 23.1465V15.5129C68.7015 13.8631 69.5497 13.3139 70.6937 13.3139H71.2167C72.4253 13.3139 73.2735 13.8322 73.2735 15.5129V22.4672C73.2735 24.6022 74.3841 25.8638 76.2763 25.8638C77.8433 25.8638 79.0519 25.0235 79.7354 23.7928V15.5129C79.7354 13.8631 80.5523 13.3139 81.7276 13.3139H82.2173C83.4572 13.3139 84.3074 13.8322 84.3074 15.5129L84.3053 15.5109Z" fill="url(#paint1_linear_216_245)"/>
<path id="Vector_3" d="M86.9476 21.3976C86.9476 16.3843 89.9504 13.1177 94.3577 13.1177C96.6416 13.1177 98.4712 14.1522 99.3839 15.5109V7.29497C99.3839 7.16489 100.201 6.7767 101.114 6.7767C102.485 6.7767 103.985 7.48906 103.985 10.4314V27.2183C103.985 28.8681 103.168 29.3843 101.962 29.3843H101.505C100.461 29.3843 99.6778 29.0292 99.5131 27.7986C99.4798 27.4434 99.4485 27.0862 99.4485 26.698C98.3712 28.5419 96.6083 29.7064 94.2577 29.7064C89.9484 29.7064 86.9456 26.3429 86.9456 21.3935L86.9476 21.3976ZM99.4173 19.2957C98.7317 17.7429 97.4251 16.7725 95.4663 16.7725C92.9866 16.7725 91.3216 18.5523 91.3216 21.3976C91.3216 24.2429 93.0199 26.0559 95.4017 26.0559C97.5898 26.0559 99.4173 24.5362 99.4173 22.2711V19.2957Z" fill="url(#paint2_linear_216_245)"/>
<path id="Vector_4" d="M106.663 21.3976C106.663 16.3843 109.666 13.1177 114.073 13.1177C116.357 13.1177 118.186 14.1522 119.099 15.5109V7.29497C119.099 7.16489 119.916 6.7767 120.829 6.7767C122.2 6.7767 123.7 7.48906 123.7 10.4314V27.2183C123.7 28.8681 122.883 29.3843 121.677 29.3843H121.22C120.176 29.3843 119.393 29.0292 119.228 27.7986C119.195 27.4434 119.164 27.0862 119.164 26.698C118.086 28.5419 116.323 29.7064 113.973 29.7064C109.663 29.7064 106.661 26.3429 106.661 21.3935L106.663 21.3976ZM119.132 19.2957C118.447 17.7429 117.14 16.7725 115.181 16.7725C112.702 16.7725 111.037 18.5523 111.037 21.3976C111.037 24.2429 112.735 26.0559 115.117 26.0559C117.305 26.0559 119.132 24.5362 119.132 22.2711V19.2957Z" fill="url(#paint3_linear_216_245)"/>
<path id="Vector_5" d="M127.293 27.2183V7.29497C127.293 7.16489 128.11 6.7767 129.022 6.7767C130.393 6.7767 131.896 7.48906 131.896 10.4314V27.2183C131.896 28.8681 131.048 29.3843 129.873 29.3843H129.383C128.174 29.3843 127.293 28.8991 127.293 27.2183Z" fill="url(#paint4_linear_216_245)"/>
<path id="Vector_6" d="M142.928 13.1177C147.66 13.1177 150.861 16.3843 150.861 21.0094V21.3006C150.827 22.077 150.6 22.4982 149.75 22.4982H138.716L138.814 23.0164C139.304 25.0875 141.033 26.4131 143.384 26.4131C145.735 26.4131 147.137 25.3786 147.856 24.117C147.889 24.053 150.109 24.2471 150.109 26.0579C150.109 26.9313 149.488 27.8378 148.346 28.5171C147.17 29.2295 145.472 29.7126 143.253 29.7126C138.062 29.7126 134.667 26.5101 134.667 21.4967C134.667 16.4834 138.127 13.1198 142.926 13.1198L142.928 13.1177ZM142.894 16.2563C140.706 16.2563 139.075 17.809 138.781 20.008H146.614C146.483 17.7119 145.08 16.2563 142.892 16.2563H142.894Z" fill="url(#paint5_linear_216_245)"/>
<path id="Vector_7" d="M152.392 26.1508C152.392 24.9863 153.666 24.2429 153.797 24.34C154.874 25.5376 156.702 26.475 159.052 26.475C160.849 26.475 161.828 25.8597 161.828 24.8583C161.828 23.6297 160.555 23.4026 158.433 22.9504C156.245 22.4982 152.851 21.7858 152.851 18.2281C152.851 15.1557 155.364 13.1177 159.477 13.1177C162.71 13.1177 164.7 13.9912 165.516 15.2197C165.777 15.6079 165.908 16.0601 165.908 16.5144C165.908 17.7119 164.504 18.5193 164.439 18.4222C163.362 17.1937 161.632 16.2872 159.771 16.2872C158.008 16.2872 157.062 16.9335 157.062 17.937C157.062 19.0685 158.302 19.2957 160.457 19.7809C162.71 20.2661 166.3 20.9785 166.3 24.5361C166.3 27.7056 163.754 29.6135 159.282 29.6135C156.769 29.6135 154.941 29.1283 153.797 28.4159C152.882 27.8006 152.392 27.0242 152.392 26.1529V26.1508Z" fill="url(#paint6_linear_216_245)"/>
</g>
<g id="Group_2">
<path id="Vector_8" d="M36.9835 10.7042C38.9652 18.2057 35.1289 28.9633 25.5307 31.7715C21.4173 32.9216 16.8266 32.4694 12.9569 30.7535C6.88461 28.1539 3.73386 21.8108 4.59865 15.443C5.74267 6.55807 14.7177 1.33203 23.0406 4.85253C27.3353 6.60556 29.8151 11.2183 29.6088 15.8146C29.6171 17.2724 29.2733 18.7714 28.6106 20.0537C26.0809 25.2302 17.5517 26.6115 13.755 22.1639C10.8918 18.79 12.2151 11.9617 16.7536 10.7703C18.379 10.4378 20.3441 10.5844 21.6048 11.7139C22.0549 12.131 22.4738 12.7546 22.7967 13.343C22.9093 13.5743 23.0322 13.8056 23.6074 13.8324C24.1825 13.8592 25.1327 12.9714 25.5537 12.1393C25.9746 11.3071 26.0434 10.7187 25.7016 10.0559C22.8864 5.38112 15.6659 5.54011 11.8754 9.14527C8.68087 12.228 7.70773 16.6901 8.77882 20.7991C9.84782 24.9948 13.8529 27.9929 18.079 28.5194C25.1702 29.5208 32.2698 25.162 33.293 17.8815C33.7327 14.6129 33.2722 11.1812 31.801 8.21198C29.0149 2.59156 23.0114 -0.297112 16.8224 0.0249987C1.85633 0.817887 -4.18053 18.7219 5.14461 29.4981C9.03096 33.923 15.0116 35.9775 20.7859 35.9982C27.9521 36.0746 34.9497 32.0461 38.3734 25.7959C39.9821 22.8907 40.8156 19.6407 40.9344 16.3577C40.9615 15.6061 41.1074 15.1952 40.4093 14.0988C39.7112 13.0023 38.0671 11.4207 36.9856 10.7063L36.9835 10.7042Z" fill="url(#paint7_linear_216_245)"/>
<g id="Group_3">
<path id="Vector_9" d="M19.7523 17.9349C19.446 17.8565 19.1188 17.9349 18.8813 18.1435C17.235 19.6013 16.6641 21.5628 17.6935 22.3764C18.9959 23.4046 20.192 22.1575 20.0357 20.9909C20.4337 22.0997 22.0716 22.6675 22.7572 21.1643C23.299 19.975 21.8882 18.4863 19.7523 17.9349Z" fill="url(#paint8_linear_216_245)"/>
<path id="Vector_10" d="M17.9781 17.2152C18.545 16.9092 18.6713 16.0546 18.26 15.3066C17.8487 14.5585 17.0557 14.2002 16.4887 14.5063C15.9218 14.8123 15.7956 15.6668 16.2068 16.4149C16.6181 17.1629 17.4111 17.5212 17.9781 17.2152Z" fill="url(#paint9_linear_216_245)"/>
<path id="Vector_11" d="M16.6389 19.2827C16.9629 18.7572 16.6523 17.9843 15.9452 17.5562C15.238 17.1282 14.4022 17.2072 14.0782 17.7327C13.7542 18.2582 14.0648 19.0312 14.7719 19.4592C15.4791 19.8873 16.3149 19.8083 16.6389 19.2827Z" fill="url(#paint10_linear_216_245)"/>
<path id="Vector_12" d="M21.3342 15.1882C21.3555 14.3366 20.8495 13.6334 20.2041 13.6175C19.5586 13.6017 19.0181 14.2792 18.9968 15.1308C18.9755 15.9823 19.4815 16.6856 20.1269 16.7014C20.7724 16.7173 21.3129 16.0398 21.3342 15.1882Z" fill="url(#paint11_linear_216_245)"/>
<path id="Vector_13" d="M24.0134 17.2464C24.4453 16.5458 24.3656 15.7175 23.8352 15.3965C23.3049 15.0755 22.5248 15.3833 22.0928 16.0839C21.6608 16.7846 21.7406 17.6128 22.2709 17.9339C22.8013 18.2549 23.5814 17.9471 24.0134 17.2464Z" fill="url(#paint12_linear_216_245)"/>
</g>
</g>
</g>
<defs>
<linearGradient id="paint0_linear_216_245" x1="73.9924" y1="-12.6408" x2="139.304" y2="53.2722" gradientUnits="userSpaceOnUse">
<stop stop-color="#FF0033"/>
<stop offset="1" stop-color="#FF7B00"/>
</linearGradient>
<linearGradient id="paint1_linear_216_245" x1="73.9924" y1="-12.6408" x2="139.304" y2="53.2722" gradientUnits="userSpaceOnUse">
<stop stop-color="#FF0033"/>
<stop offset="1" stop-color="#FF7B00"/>
</linearGradient>
<linearGradient id="paint2_linear_216_245" x1="73.9925" y1="-12.6408" x2="139.304" y2="53.2722" gradientUnits="userSpaceOnUse">
<stop stop-color="#FF0033"/>
<stop offset="1" stop-color="#FF7B00"/>
</linearGradient>
<linearGradient id="paint3_linear_216_245" x1="73.9924" y1="-12.6408" x2="139.304" y2="53.2722" gradientUnits="userSpaceOnUse">
<stop stop-color="#FF0033"/>
<stop offset="1" stop-color="#FF7B00"/>
</linearGradient>
<linearGradient id="paint4_linear_216_245" x1="73.9924" y1="-12.6408" x2="139.304" y2="53.2723" gradientUnits="userSpaceOnUse">
<stop stop-color="#FF0033"/>
<stop offset="1" stop-color="#FF7B00"/>
</linearGradient>
<linearGradient id="paint5_linear_216_245" x1="73.9925" y1="-12.6408" x2="139.304" y2="53.2722" gradientUnits="userSpaceOnUse">
<stop stop-color="#FF0033"/>
<stop offset="1" stop-color="#FF7B00"/>
</linearGradient>
<linearGradient id="paint6_linear_216_245" x1="73.9925" y1="-12.6408" x2="139.304" y2="53.2722" gradientUnits="userSpaceOnUse">
<stop stop-color="#FF0033"/>
<stop offset="1" stop-color="#FF7B00"/>
</linearGradient>
<linearGradient id="paint7_linear_216_245" x1="5.78852" y1="4.85046" x2="32.9479" y2="32.26" gradientUnits="userSpaceOnUse">
<stop stop-color="#FF0033"/>
<stop offset="1" stop-color="#FF7B00"/>
</linearGradient>
<linearGradient id="paint8_linear_216_245" x1="18.0561" y1="18.9467" x2="21.5847" y2="22.5078" gradientUnits="userSpaceOnUse">
<stop stop-color="#FF0033"/>
<stop offset="1" stop-color="#FF7B00"/>
</linearGradient>
<linearGradient id="paint9_linear_216_245" x1="16.151" y1="14.7906" x2="18.2942" y2="16.9535" gradientUnits="userSpaceOnUse">
<stop stop-color="#FF0033"/>
<stop offset="1" stop-color="#FF7B00"/>
</linearGradient>
<linearGradient id="paint10_linear_216_245" x1="14.3089" y1="17.47" x2="16.3881" y2="19.5662" gradientUnits="userSpaceOnUse">
<stop stop-color="#FF0033"/>
<stop offset="1" stop-color="#FF7B00"/>
</linearGradient>
<linearGradient id="paint11_linear_216_245" x1="19.1966" y1="14.2039" x2="21.1127" y2="16.1376" gradientUnits="userSpaceOnUse">
<stop stop-color="#FF0033"/>
<stop offset="1" stop-color="#FF7B00"/>
</linearGradient>
<linearGradient id="paint12_linear_216_245" x1="22.2373" y1="15.8613" x2="23.8499" y2="17.4866" gradientUnits="userSpaceOnUse">
<stop stop-color="#FF0033"/>
<stop offset="1" stop-color="#FF7B00"/>
</linearGradient>
<clipPath id="clip0_216_245">
<rect width="165.6" height="36" fill="white" transform="translate(0.699951)"/>
</clipPath>
</defs>
</svg>
